<svg width="40" height="40" viewBox="0 0 40 40" fill="none" xmlns="http://www.w3.org/2000/svg">
<path d="M14.3605 0.0645909C6.85517 0.706566 0.844611 6.6331 0.0776388 14.1489C-0.744117 22.338 5.04731 29.8538 13.1866 31.1456C15.738 31.5449 18.125 31.357 20.5433 30.5584C22.1555 30.0339 23.5955 29.298 24.8477 28.3741L25.3173 28.0218L31.187 33.8779C37.6515 40.3368 37.3384 40.0628 38.2228 39.9688C39.5611 39.8358 40.375 38.4579 39.8272 37.2522C39.7098 36.9782 38.3402 35.569 33.8714 31.0908L28.0721 25.2895L28.6669 24.397C29.3087 23.4497 30.1539 21.7665 30.4748 20.8114C31.0226 19.1673 31.2339 17.9773 31.2809 16.1844C31.3592 13.413 30.9287 11.3148 29.7783 8.92699C27.3208 3.83033 22.4998 0.5265 16.8649 0.0645909C15.7693 -0.0215277 15.4171 -0.0215277 14.3605 0.0645909ZM17.8432 4.09651C20.1676 4.55059 22.2807 5.67796 23.9399 7.3377C25.3173 8.7156 26.233 10.1953 26.8356 12.0038C27.266 13.3112 27.4147 14.2663 27.4147 15.6834C27.4147 17.1004 27.266 18.0556 26.8356 19.3473C25.4816 23.4576 22.1007 26.4169 17.8041 27.2859C16.7397 27.4973 14.3997 27.4738 13.3588 27.2468C10.1187 26.5343 7.51258 24.7493 5.7595 22.0405C5.00035 20.8818 4.47599 19.6214 4.13164 18.1573C3.90467 17.1631 3.84989 14.9161 4.02989 13.8279C4.7186 9.6864 7.44997 6.28079 11.3083 4.73849C12.1066 4.4175 13.3118 4.09651 14.1258 3.9869C14.9162 3.8773 17.0528 3.93993 17.8432 4.09651Z" fill="black"/>
</svg>
